<svg width="62" height="68" viewBox="0 0 62 68" fill="none" xmlns="http://www.w3.org/2000/svg">
<path d="M29.7238 0.350922C29.2081 0.615421 28.9039 0.893143 28.613 1.36924C28.2294 1.9908 28.2162 2.05692 28.1633 3.93485L28.1236 5.86567L26.9731 6.09049C18.6018 7.73037 12.2009 14.9247 11.3546 23.6398C11.2884 24.3408 11.2223 27.1709 11.2223 29.9349C11.2223 35.357 11.143 36.2828 10.4949 38.531C9.9924 40.2767 9.21214 41.9562 8.19383 43.5167C7.17551 45.0508 6.35558 46.0162 4.78182 47.5106C3.14194 49.0579 2.54683 50.5524 2.89067 52.2716C3.31387 54.414 4.80827 55.9084 6.92424 56.3184C7.50614 56.4242 14.1582 56.4506 31.5224 56.4242L55.3271 56.3845L56.0809 56.0803C57.1521 55.6439 58.1969 54.652 58.7259 53.5676C59.1226 52.7741 59.1623 52.5758 59.1623 51.4913C59.1623 49.6927 58.8185 49.0579 56.5702 46.7965C53.5814 43.7945 52.0077 40.9379 51.1481 37.0366C50.8836 35.8728 50.8571 35.1719 50.7645 29.2736C50.6587 22.2248 50.6191 21.828 49.7727 19.2095C47.617 12.6236 41.8642 7.4791 35.0402 6.07727L33.9029 5.83922L33.8368 3.93485C33.7574 1.79243 33.6119 1.30311 32.8184 0.655094C31.9059 -0.0987206 30.7951 -0.204521 29.7238 0.350922Z" fill="var(--ion-color-primary)"/>
<path d="M11.2882 2.29485C10.6137 2.53289 8.72258 4.47694 7.14883 6.57969C2.79786 12.3457 0.364494 19.0904 0.0338736 26.2318C-0.071925 28.4006 0.0470984 28.9825 0.721564 29.7364C1.99115 31.1382 4.25259 30.9001 5.218 29.2735C5.5354 28.718 5.57508 28.4932 5.68087 26.5624C5.9057 22.2114 6.80498 18.6275 8.57711 14.9907C9.88637 12.2928 11.2882 10.2297 13.4306 7.83605C14.8589 6.24907 15.0705 5.86555 15.0705 4.96626C15.0705 4.10665 14.8854 3.6041 14.3564 3.03544C13.5364 2.17582 12.4123 1.8981 11.2882 2.29485Z" fill="var(--ion-color-primary)"/>
<path d="M48.7283 2.2949C47.6835 2.6652 46.9429 3.74963 46.9297 4.91342C46.9297 5.82593 47.181 6.30202 48.2654 7.47903C53.3966 13.007 55.9755 19.1698 56.3987 26.9592C56.4912 28.7446 56.6499 29.2471 57.3376 29.8951C58.713 31.2044 60.8687 30.7812 61.7679 29.009C62.0192 28.5197 62.0324 28.3346 61.9663 26.2318C61.7283 19.9104 59.7578 13.7873 56.24 8.48412C54.4017 5.72013 51.8361 2.81067 50.831 2.3478C50.2094 2.05685 49.4424 2.04363 48.7283 2.2949Z" fill="var(--ion-color-primary)"/>
<path d="M20.8234 59.9155C21.1408 61.066 22.1326 62.944 22.9129 63.8829C24.2222 65.4567 26.3646 66.8188 28.4144 67.3743C29.7237 67.7313 32.3951 67.7049 33.744 67.3214C37.3015 66.3031 40.039 63.6713 41.097 60.2329C41.2425 59.7436 41.3748 59.3071 41.3748 59.2807C41.3748 59.2542 36.7064 59.2278 31.0065 59.2278H20.625L20.8234 59.9155Z" fill="var(--ion-color-primary)"/>
</svg>
