<svg width="512" height="512" viewBox="0 0 512 512" fill="none" xmlns="http://www.w3.org/2000/svg">
<path d="M37.675 0.862885C19.975 3.86288 3.975 20.2629 0.975 38.4629C-0.325 46.4629 -0.325 465.263 0.975 473.263C3.975 491.963 19.875 507.863 38.575 510.863C46.575 512.163 465.375 512.163 473.375 510.863C492.075 507.863 507.975 491.963 510.975 473.263C512.275 465.263 512.275 46.4629 510.975 38.4629C507.975 19.7629 492.075 3.86288 473.375 0.862885C466.175 -0.337097 44.675 -0.237122 37.675 0.862885ZM277.475 70.8629C324.075 76.0629 367.975 96.1629 398.775 126.263C406.875 134.263 406.975 134.463 406.975 139.363V144.263L372.275 179.163C351.775 199.663 336.075 214.663 334.075 215.563C329.275 217.663 325.675 216.463 318.575 210.363C305.875 199.563 293.175 193.263 276.475 189.363C266.775 187.063 244.775 187.063 235.775 189.363C233.575 189.963 232.675 188.263 220.975 162.263C214.075 147.063 207.275 133.363 205.875 131.763C200.975 126.463 193.075 127.063 188.575 133.163C184.975 138.063 185.875 141.463 198.875 169.963C205.475 184.563 210.975 197.063 210.975 197.663C210.975 198.263 208.475 200.163 205.375 201.963C202.275 203.663 197.075 207.363 193.875 210.063C186.575 216.163 183.175 217.463 178.775 215.963C176.475 215.163 164.675 204.063 140.175 179.563L104.975 144.263V139.463C104.975 135.063 105.375 134.263 110.775 128.663C139.175 98.7629 186.975 76.2629 232.975 70.9629C243.675 69.7629 266.875 69.6629 277.475 70.8629Z" fill="var(--ion-color-secondary)"/>
</svg>
