<svg width="643" height="188" viewBox="0 0 643 188" fill="none" xmlns="http://www.w3.org/2000/svg">
<path d="M356.133 156.185C361.529 156.185 366.008 154.614 369.568 151.469C373.127 148.326 375.024 144.441 375.261 139.814H395.635C395.398 145.806 393.53 151.396 390.031 156.585C386.53 161.775 381.786 165.882 375.796 168.907C369.805 171.931 363.34 173.444 356.4 173.444C342.935 173.444 332.258 169.085 324.371 160.366C316.482 151.646 312.538 139.606 312.538 124.244V122.019C312.538 107.37 316.453 95.64 324.282 86.832C332.111 78.023 342.788 73.62 356.311 73.62C367.757 73.62 377.085 76.956 384.291 83.629C391.498 90.302 395.279 99.065 395.635 109.919H375.261C375.024 104.403 373.14 99.865 369.612 96.307C366.083 92.748 361.59 90.969 356.133 90.969C349.133 90.969 343.736 93.505 339.941 98.575C336.144 103.646 334.216 111.343 334.158 121.663V125.133C334.158 135.573 336.04 143.358 339.807 148.487C343.572 153.62 349.014 156.185 356.133 156.185Z" fill="#8E8F91"/>
<path d="M465.836 171.666C464.887 169.828 464.057 166.832 463.345 162.68C456.464 169.858 448.042 173.446 438.077 173.446C428.409 173.446 420.519 170.688 414.411 165.172C408.302 159.656 405.247 152.836 405.247 144.709C405.247 134.448 409.058 126.574 416.68 121.088C424.301 115.603 435.2 112.859 449.376 112.859H462.633V106.542C462.633 101.56 461.238 97.571 458.451 94.576C455.663 91.582 451.423 90.083 445.728 90.083C440.804 90.083 436.771 91.314 433.628 93.775C430.483 96.237 428.912 99.366 428.912 103.161H407.293C407.293 97.883 409.042 92.945 412.542 88.348C416.041 83.752 420.801 80.15 426.821 77.538C432.841 74.929 439.558 73.624 446.973 73.624C458.242 73.624 467.227 76.457 473.93 82.12C480.632 87.785 484.073 95.748 484.251 106.009V149.426C484.251 158.086 485.466 164.995 487.898 170.155V171.668H465.836V171.666ZM442.081 156.097C446.352 156.097 450.369 155.06 454.137 152.983C457.903 150.908 460.735 148.121 462.633 144.62V126.471H450.977C442.97 126.471 436.95 127.865 432.916 130.653C428.882 133.441 426.866 137.385 426.866 142.486C426.866 146.638 428.245 149.945 431.003 152.406C433.762 154.866 437.454 156.097 442.081 156.097Z" fill="#8E8F91"/>
<path d="M553.652 95.1519C550.804 94.6779 547.869 94.4399 544.843 94.4399C534.937 94.4399 528.264 98.2369 524.825 105.828V171.666H503.205V75.4009H523.846L524.38 86.1659C529.599 77.8039 536.836 73.6219 546.089 73.6219C549.172 73.6219 551.723 74.0369 553.74 74.8669L553.652 95.1519Z" fill="#8E8F91"/>
<path d="M604.368 173.445C590.667 173.445 579.559 169.131 571.049 160.5C562.537 151.87 558.282 140.379 558.282 126.024V123.355C558.282 113.747 560.135 105.161 563.843 97.5979C567.549 90.0349 572.753 84.1499 579.457 79.9379C586.158 75.7269 593.632 73.6219 601.877 73.6219C614.984 73.6219 625.112 77.8039 632.26 86.1659C639.407 94.5289 642.982 106.362 642.982 121.665V130.384H580.08C580.732 138.333 583.387 144.619 588.043 149.246C592.699 153.872 598.556 156.185 605.615 156.185C615.519 156.185 623.587 152.181 629.814 144.174L641.469 155.295C637.613 161.049 632.468 165.513 626.032 168.685C619.595 171.857 612.376 173.445 604.368 173.445ZM601.788 90.9709C595.856 90.9709 591.067 93.0479 587.42 97.1989C583.772 101.351 581.443 107.135 580.436 114.549H621.628V112.947C621.153 105.711 619.227 100.239 615.846 96.5319C612.465 92.8249 607.778 90.9709 601.788 90.9709Z" fill="#8E8F91"/>
<path d="M104.947 99.342C99.962 92.612 93.159 87.899 84.715 85.324C91.814 82.097 97.533 77.589 101.729 71.909C106.129 65.953 108.36 59.013 108.36 51.277C108.36 36.76 103.768 25.632 94.713 18.204C85.679 10.797 72.042 7.04102 54.181 7.04102H0V172.346H57.457C74.95 172.346 88.686 168.055 98.282 159.592C107.893 151.116 112.766 139.309 112.766 124.492C112.766 114.811 110.136 106.35 104.947 99.342ZM77.369 70.165C71.784 74.837 64.21 77.205 54.857 77.205H22.49V25.576H54.179C64.806 25.576 72.82 27.626 77.999 31.664C83.145 35.679 85.755 42.222 85.755 51.109C85.756 59.099 82.934 65.512 77.369 70.165ZM81.538 146.058C75.805 151.203 67.853 153.81 57.908 153.81H22.49V95.403H58.248C79.425 95.403 90.163 105.265 90.163 124.718C90.163 133.747 87.261 140.926 81.538 146.058Z" fill="#8E8F91"/>
<path d="M304.172 75.456H286.531V0H266.318L215.747 79.239L215.743 91.157H266.964L266.989 108.389C266.989 141.402 240.159 168.257 207.147 168.257C174.136 168.257 147.279 141.402 147.279 108.389L147.318 91.132H204.343V83.161C204.343 69.31 201.108 58.599 194.639 51.031C188.169 43.461 179.003 39.677 167.138 39.677C159.676 39.677 152.911 41.582 146.845 45.394C140.778 49.206 136.068 54.534 132.713 61.379C130.428 66.039 128.941 71.14 128.211 76.659H116.697V91.117H127.677L127.673 108.594C127.68 111.195 127.812 113.765 128.064 116.301C132.047 156.424 165.993 187.864 207.146 187.864C250.97 187.864 286.623 152.212 286.623 108.388L286.53 91.156H304.171V75.456H304.172ZM266.964 75.456H236.282L265.513 29.07L266.963 26.494V75.456H266.964ZM154.053 61.017C157.354 57.259 161.69 55.379 167.058 55.379C172.48 55.379 176.722 57.058 179.782 60.413C182.842 63.767 184.586 68.72 185.016 75.268V76.719H147.732C148.644 70.01 150.752 64.775 154.053 61.017Z" fill="#8C68F5"/>
</svg>
