<svg width="17" height="30" viewBox="0 0 17 30" fill="none" xmlns="http://www.w3.org/2000/svg">
<path d="M8.49849 30C8.22659 30 7.95468 29.946 7.69552 29.8335C6.8968 29.4869 6.37424 28.6634 6.37424 27.7498V20.8821L3.59571 23.7083C2.75026 24.5679 1.40348 24.5409 0.592014 23.6453C-0.219452 22.7497 -0.193961 21.3231 0.651493 20.4635L6.02161 14.9999L0.655743 9.53638C-0.189711 8.67679 -0.215202 7.25015 0.596264 6.35455C1.41198 5.45896 2.75451 5.43195 3.59996 6.29154L6.37849 9.11784V2.25013C6.37849 1.33653 6.90105 0.512949 7.69977 0.166413C8.50274 -0.175622 9.41192 0.0178957 10.0195 0.670463L16.3922 7.53817C16.7831 7.96572 17.004 8.54628 16.9955 9.14934C16.987 9.7479 16.7534 10.324 16.3412 10.7425L12.1565 14.9999L16.3455 19.2619C16.7534 19.6804 16.9913 20.252 16.9998 20.8551C17.0083 21.4536 16.7873 22.0342 16.388 22.4662L10.0152 29.3339C9.60736 29.766 9.0593 30 8.49849 30ZM10.6227 19.6804V22.2502L11.8506 20.9271L10.6227 19.6804ZM10.6227 7.74519V10.315L11.8506 9.06833L10.6227 7.74519Z" fill="url(#paint0_linear)" fill-opacity="0.8"/>
<defs>
<linearGradient id="paint0_linear" x1="8.5" y1="0" x2="8.5" y2="30" gradientUnits="userSpaceOnUse">
<stop stop-color="#29C1E1"/>
<stop offset="1" stop-color="#8C68F5"/>
</linearGradient>
</defs>
</svg>
