<?xml version="1.0" encoding="utf-8"?>
<!-- Generator: Adobe Illustrator 24.0.2, SVG Export Plug-In . SVG Version: 6.00 Build 0)  -->
<svg version="1.1" id="Capa_1" xmlns="http://www.w3.org/2000/svg" xmlns:xlink="http://www.w3.org/1999/xlink" x="0px" y="0px"
	 viewBox="0 0 778 1006" style="enable-background:new 0 0 778 1006;" xml:space="preserve">
<style type="text/css">
	.st0{fill:#2170A6;}
	.st1{fill:none;}
</style>
<path class="st0" d="M401.9,771.2V625.8l36.7,21.2c0.1,0,0.1,0.1,0.2,0.1l89.1,51.4L401.9,771.2z M661.2,608.5l-157.8-91.1
	l-29.1-16.8l17.9-10.4c0,0,0.1,0,0.1,0l168.8-97.5c32.1-18.5,52-53,52-90.1c0-37.1-19.9-71.6-52-90.1l-77.1-44.5L410.5,67.6
	c-31.5-18.2-70.7-18.2-102.1,0c-31.5,18.2-51.1,52.1-51.1,88.4v218.8l-100.4-58.1c-16.7-9.7-36.2-12.3-54.9-7.3
	c-18.7,5-34.3,17-43.9,33.6c-9.7,16.7-12.3,36.2-7.3,54.9c5,18.7,16.9,34.3,33.7,44L186.2,501l-102,59.5
	c-34.4,20.1-46.1,64.5-26.1,98.9c12.9,22.2,36.9,35.9,62.6,35.9c12.7,0,25.3-3.4,36.4-9.8l100.1-58.4v217.8
	c0,36.4,19.6,70.3,51.1,88.4c15.5,8.9,33.1,13.7,51.1,13.7s35.6-4.7,51.1-13.7l250.7-144.8c32.1-18.5,52-53,52-90.1
	C713.2,661.5,693.3,627,661.2,608.5z M302.2,156.1c0-20.4,10.9-39.3,28.6-49.5c17.6-10.2,39.5-10.2,57.1,0l173.6,100.2l77.1,44.5
	c18.2,10.5,29.5,30.1,29.5,51.1c0,21-11.3,40.6-29.5,51.1L429.4,474.5L375,443l65-37.9l0.7-0.4L584.1,322c7-4,11.3-11.4,11.3-19.5
	S591,287,584.1,283L390.7,171.3c-7-4-15.5-4-22.5,0c-7,4-11.3,11.4-11.3,19.5v210.7l-26.7,15.6l-27.9-16.2L302.2,156.1L302.2,156.1z
	 M401.9,375.2V229.8l125.9,72.7L419.6,365c-0.1,0-0.2,0.1-0.3,0.1l-2.8,1.6L401.9,375.2z M134.5,646.6c-4.3,2.5-8.9,3.8-13.8,3.8
	c-9.7,0-18.8-5.2-23.7-13.6c-7.6-13-3.2-29.8,9.9-37.4l124.2-72.4l37.3,21.6c0,0,0.1,0.1,0.1,0.1l6.2,3.6l10.9,6.3L134.5,646.6z
	 M638.7,749.6L387.9,894.4c-8.6,5-18.5,7.6-28.6,7.6c-10,0-19.9-2.6-28.6-7.6c-17.6-10.2-28.6-29.1-28.6-49.5v-244l28.2-16.5
	l26.5,15.3v210.5c0,8,4.3,15.5,11.3,19.5c3.5,2,7.4,3,11.3,3c3.9,0,7.8-1,11.3-3L584.1,718c7-4,11.3-11.5,11.3-19.5
	S591,683,584.1,679L107,403.1c-6.3-3.7-10.9-9.6-12.8-16.6c-1.9-7.1-0.9-14.4,2.8-20.8c3.6-6.3,9.6-10.8,16.6-12.7
	c7.1-1.9,14.4-0.9,20.7,2.7l504.4,291.7c18.2,10.5,29.5,30.1,29.5,51.1C668.2,719.5,656.9,739.1,638.7,749.6z"/>
<path class="st1" d="M668.2,302.5c0,21-11.3,40.6-29.5,51.1L429.4,474.5L375,443l65-37.9l0.7-0.4L584.1,322c7-4,11.3-11.4,11.3-19.5
	S591,287,584.1,283L390.7,171.3c-7-4-15.5-4-22.5,0c-7,4-11.3,11.4-11.3,19.5v210.7l-26.7,15.6l-27.9-16.2V156.1
	c0-20.4,10.9-39.3,28.6-49.5c17.6-10.2,39.5-10.2,57.1,0l173.6,100.2l77.1,44.5C656.9,261.9,668.2,281.5,668.2,302.5z"/>
<path class="st1" d="M668.2,698.5c0,21-11.3,40.6-29.5,51.1L387.9,894.4c-8.6,5-18.5,7.6-28.6,7.6c-10,0-19.9-2.6-28.6-7.6
	c-17.6-10.2-28.6-29.1-28.6-49.5v-244l28.2-16.5l26.5,15.3v210.5c0,8,4.3,15.5,11.3,19.5c3.5,2,7.4,3,11.3,3c3.9,0,7.8-1,11.3-3
	L584.1,718c7-4,11.3-11.5,11.3-19.5S591,683,584.1,679L107,403.1c-6.3-3.7-10.9-9.6-12.8-16.6c-1.9-7.1-0.9-14.4,2.8-20.8
	c3.6-6.3,9.6-10.8,16.6-12.7c7.1-1.9,14.4-0.9,20.7,2.7l504.4,291.7C656.9,657.9,668.2,677.5,668.2,698.5z"/>
<path class="st1" d="M285.6,558.5l-151.1,88.1c-4.3,2.5-8.9,3.8-13.8,3.8c-9.7,0-18.8-5.2-23.7-13.6c-7.6-13-3.2-29.8,9.9-37.4
	l124.2-72.4l37.3,21.6c0,0,0.1,0.1,0.1,0.1l6.2,3.6L285.6,558.5z"/>
</svg>
