<?xml version="1.0" encoding="utf-8"?>
<!-- Generator: Adobe Illustrator 16.0.3, SVG Export Plug-In . SVG Version: 6.00 Build 0)  -->
<!DOCTYPE svg PUBLIC "-//W3C//DTD SVG 1.1//EN" "http://www.w3.org/Graphics/SVG/1.1/DTD/svg11.dtd">
<svg version="1.1" id="Capa_1" xmlns="http://www.w3.org/2000/svg" xmlns:xlink="http://www.w3.org/1999/xlink" x="0px" y="0px"
	 width="17px" height="30px" viewBox="0 0 17 30" enable-background="new 0 0 17 30" xml:space="preserve">
<path fill-opacity="0.8" d="M8.499,30c-0.272,0-0.544-0.055-0.803-0.166c-0.798-0.348-1.321-1.17-1.321-2.084v-6.868l-2.778,2.827
	c-0.845,0.859-2.192,0.832-3.004-0.063c-0.811-0.896-0.786-2.322,0.06-3.183L6.021,15L0.656,9.536
	C-0.19,8.677-0.215,7.25,0.596,6.354C1.412,5.459,2.754,5.432,3.6,6.292l2.778,2.826V2.25c0-0.914,0.522-1.737,1.321-2.083
	c0.803-0.342,1.712-0.148,2.32,0.504l6.373,6.868c0.391,0.428,0.611,1.008,0.604,1.611c-0.01,0.599-0.242,1.175-0.654,1.593
	L12.156,15l4.189,4.262c0.408,0.419,0.646,0.99,0.654,1.594c0.008,0.598-0.213,1.179-0.611,1.611l-6.373,6.867
	C9.607,29.766,9.059,30,8.499,30z M10.623,19.681v2.569l1.228-1.322L10.623,19.681z M10.623,7.745v2.57l1.228-1.247L10.623,7.745z"
	/>
</svg>
