<svg width="49" height="56" viewBox="0 0 49 56" fill="none" xmlns="http://www.w3.org/2000/svg">
<path d="M46.3292 25.8511C45.8339 24.994 44.6737 25.1246 44.3445 26.0762C44.3373 26.0973 44.3299 26.1185 44.3225 26.1395C43.9043 27.3362 42.3328 27.1353 42.1698 25.8637C40.1699 10.2675 32.9651 0 24.3823 0C24.3676 0 24.3528 0 24.3381 0.000108366C22.4287 0.00801908 21.0782 2.09406 21.6419 4.13167C21.9013 5.06957 22.0402 6.06676 22.0384 7.10035C22.0288 12.5242 18.0784 16.9855 13.2225 17.0534C12.3845 17.0651 11.5726 16.948 10.8019 16.7185C9.62072 16.3667 8.39402 17.0979 8.04346 18.4058C7.42296 20.7213 6.9339 23.2146 6.59472 25.8613C6.43162 27.1338 4.86032 27.3365 4.44192 26.1389C4.43466 26.118 4.4274 26.0972 4.42014 26.0763C4.09092 25.1247 2.93076 24.9942 2.43541 25.8512C0.87538 28.5506 0 31.5811 0 34.7834C0 46.0959 10.9163 55.2666 24.3823 55.2666C24.3986 55.2666 24.4146 55.2661 24.4309 55.2661C24.4375 55.2661 24.4441 55.2663 24.4507 55.2663C24.4692 55.2663 24.4877 55.2654 24.5062 55.2653C37.9151 55.2091 48.7647 46.0611 48.7647 34.7834C48.7647 31.5811 47.8893 28.5506 46.3292 25.8511V25.8511Z" fill="url(#paint0_linear_917:508)"/>
<path d="M13.5214 13.1829C15.2506 13.1829 16.6524 11.7811 16.6524 10.0519C16.6524 8.32267 15.2506 3.15979 13.5214 3.15979C11.7922 3.15979 10.3904 8.32267 10.3904 10.0519C10.3904 11.7812 11.7921 13.1829 13.5214 13.1829Z" fill="#BE85FF"/>
<path d="M46.3287 25.8511C45.8333 24.994 44.6732 25.1246 44.3439 26.0762C44.3367 26.0973 44.3293 26.1185 44.3219 26.1395C43.9038 27.3362 42.3322 27.1353 42.1693 25.8637C40.1694 10.2675 32.9645 0 24.3817 0C24.367 0 24.3523 0 24.3375 0.000108366C23.8311 0.00216732 23.3647 0.151604 22.9622 0.406372C30.2248 2.44874 36.0639 12.0717 37.8324 25.8637C37.9955 27.1353 39.567 27.3362 39.9851 26.1395C39.9925 26.1183 39.9999 26.0973 40.0071 26.0762C40.3364 25.1246 41.4965 24.994 41.9919 25.8511C43.5519 28.5506 44.4273 31.581 44.4273 34.7834C44.4273 45.4833 34.6606 54.2648 22.2083 55.1847C22.9244 55.2379 23.6491 55.2666 24.3817 55.2666C24.398 55.2666 24.414 55.2661 24.4303 55.2661C24.4369 55.2661 24.4435 55.2663 24.4501 55.2663C24.4687 55.2663 24.4871 55.2654 24.5056 55.2653C37.9145 55.2091 48.7641 46.0611 48.7641 34.7834C48.7641 31.5811 47.8887 28.5506 46.3287 25.8511V25.8511Z" fill="url(#paint1_linear_917:508)"/>
<path d="M37.4245 39.5101C37.4245 36.7677 36.5774 33.9187 35.1316 31.4412C35.8253 33.6216 36.2073 35.8134 36.2073 37.8362C36.2073 44.0708 32.6765 49.4796 27.5059 52.1751C33.2003 50.7753 37.4245 45.6364 37.4245 39.5101V39.5101Z" fill="url(#paint2_linear_917:508)"/>
<defs>
<linearGradient id="paint0_linear_917:508" x1="-1.30039" y1="27.6333" x2="48.5951" y2="27.6333" gradientUnits="userSpaceOnUse">
<stop stop-color="#C3AEFF"/>
<stop offset="0.593" stop-color="#BE86FF"/>
<stop offset="1" stop-color="#8C30F5"/>
</linearGradient>
<linearGradient id="paint1_linear_917:508" x1="4.33406" y1="27.6333" x2="41.9243" y2="27.6333" gradientUnits="userSpaceOnUse">
<stop stop-color="#BFABF9"/>
<stop offset="0.593" stop-color="#B16DFF"/>
<stop offset="1" stop-color="#8C30F5"/>
</linearGradient>
<linearGradient id="paint2_linear_917:508" x1="17.5548" y1="41.8082" x2="33.2901" y2="41.8082" gradientUnits="userSpaceOnUse">
<stop stop-color="#D5AFFF"/>
<stop offset="0.593" stop-color="#8C68F5"/>
<stop offset="1" stop-color="#8C30F5"/>
</linearGradient>
</defs>
</svg>
