<svg width="509" height="577" viewBox="0 0 509 577" fill="none" xmlns="http://www.w3.org/2000/svg">
<path d="M483.579 269.964C478.409 261.018 466.299 262.381 462.863 272.314C462.787 272.534 462.71 272.755 462.634 272.974C458.269 285.465 441.865 283.368 440.164 270.096C419.289 107.304 344.086 0.133301 254.5 0.133301C254.346 0.133301 254.192 0.133301 254.039 0.134432C234.108 0.217003 220.012 21.9909 225.895 43.2592C228.603 53.0489 230.053 63.4574 230.034 74.246C229.935 130.859 188.7 177.426 138.015 178.135C129.268 178.257 120.794 177.035 112.749 174.639C100.42 170.967 87.6159 178.599 83.9567 192.251C77.48 216.42 72.3753 242.444 68.8349 270.071C67.1326 283.353 50.7315 285.469 46.3642 272.969C46.2885 272.75 46.2127 272.533 46.1369 272.315C42.7006 262.383 30.5909 261.02 25.4206 269.965C9.13711 298.141 0 329.773 0 363.198C0 481.277 113.944 577 254.5 577C254.67 577 254.837 576.994 255.007 576.994C255.076 576.994 255.145 576.997 255.214 576.997C255.407 576.997 255.599 576.987 255.793 576.986C395.753 576.399 509 480.914 509 363.198C509 329.773 499.863 298.141 483.579 269.964V269.964Z" fill="var(--ion-color-primary)"/>
<path d="M141.128 137.735C159.177 137.735 173.809 123.103 173.809 105.053C173.809 87.0043 159.177 33.1147 141.128 33.1147C123.079 33.1147 108.447 87.0043 108.447 105.053C108.447 123.104 123.078 137.735 141.128 137.735Z" fill="var(--ion-color-primary)"/>
<path d="M423.2 395.063C423.2 488.232 347.672 563.762 254.501 563.762C161.33 563.762 85.8013 488.233 85.8013 395.063C85.8013 301.892 159.345 174.324 252.515 174.324C345.684 174.324 423.2 301.893 423.2 395.063V395.063Z" fill="var(--ion-color-primary)"/>
<path d="M252.516 174.324C244.841 174.324 237.301 175.206 229.921 176.847C312.663 195.127 377.934 309.569 377.934 395.063C377.934 480.556 314.334 551.186 231.868 562.245C239.272 563.238 246.826 563.761 254.502 563.761C347.671 563.761 423.201 488.232 423.201 395.061C423.201 301.891 345.687 174.324 252.516 174.324V174.324Z" fill="var(--ion-color-primary)"/>
<path d="M483.579 269.964C478.409 261.018 466.299 262.381 462.863 272.314C462.787 272.534 462.71 272.755 462.633 272.974C458.268 285.465 441.865 283.368 440.164 270.096C419.289 107.304 344.086 0.133301 254.5 0.133301C254.346 0.133301 254.192 0.133301 254.038 0.134432C248.753 0.155923 243.884 1.71573 239.682 4.37497C315.489 25.693 376.437 126.137 394.897 270.096C396.599 283.368 413.001 285.465 417.366 272.974C417.443 272.754 417.52 272.534 417.596 272.314C421.032 262.381 433.142 261.018 438.312 269.964C454.596 298.141 463.733 329.772 463.733 363.198C463.733 474.883 361.789 566.543 231.813 576.145C239.289 576.7 246.852 577 254.5 577C254.669 577 254.837 576.994 255.006 576.994C255.075 576.994 255.144 576.997 255.213 576.997C255.407 576.997 255.599 576.987 255.793 576.986C395.753 576.399 509 480.914 509 363.198C509 329.773 499.863 298.141 483.579 269.964V269.964Z" fill="var(--ion-color-primary)"/>
<path d="M390.631 412.536C390.631 383.91 381.789 354.174 366.697 328.313C373.939 351.072 377.926 373.95 377.926 395.063C377.926 460.139 341.072 516.597 287.101 544.732C346.539 530.12 390.631 476.482 390.631 412.536V412.536Z" fill="var(--ion-color-primary)"/>
</svg>
