<svg width="33" height="33" viewBox="0 0 33 33" fill="none" xmlns="http://www.w3.org/2000/svg">
<path d="M17.9695 0.135352C17.6924 0.277149 17.4668 0.657422 17.4668 0.966797C17.4668 1.28906 17.6924 1.65645 17.9824 1.80469C18.1951 1.91426 18.3627 1.93359 19.091 1.93359H19.9418L18.8074 3.07441C18.1887 3.70605 17.6279 4.31191 17.5699 4.42793C17.3443 4.8791 17.5377 5.43984 17.9953 5.66543C18.2725 5.79434 18.3627 5.80078 20.393 5.80078C22.3781 5.80078 22.5135 5.79434 22.752 5.67188C23.042 5.52363 23.2676 5.15625 23.2676 4.83398C23.2676 4.51172 23.042 4.14434 22.752 3.99609C22.5393 3.88652 22.3717 3.86719 21.6434 3.86719H20.7926L21.927 2.71992C22.5457 2.09473 23.1064 1.48887 23.1645 1.37285C23.39 0.92168 23.1967 0.360938 22.7391 0.135352C22.4619 0.00644541 22.3717 0 20.3285 0C18.3434 0.00644541 18.1951 0.0128908 17.9695 0.135352Z" fill="var(--ion-color-secondary)"/>
<path d="M10.2352 5.93613C9.95801 6.07793 9.73242 6.4582 9.73242 6.76758C9.73242 7.08984 9.95801 7.45723 10.248 7.60547C10.4607 7.71504 10.6283 7.73438 11.3566 7.73438H12.2074L11.073 8.8752C10.4543 9.50684 9.89355 10.1127 9.83555 10.2287C9.60996 10.6799 9.80332 11.2406 10.2609 11.4662C10.5381 11.5951 10.6283 11.6016 12.6586 11.6016C14.6437 11.6016 14.7791 11.5951 15.0176 11.4727C15.3076 11.3244 15.5332 10.957 15.5332 10.6348C15.5332 10.3125 15.3076 9.94512 15.0176 9.79688C14.8049 9.6873 14.6373 9.66797 13.909 9.66797H13.0582L14.1926 8.5207C14.8113 7.89551 15.3721 7.28965 15.4301 7.17363C15.6557 6.72246 15.4623 6.16172 15.0047 5.93613C14.7275 5.80723 14.6373 5.80078 12.5941 5.80078C10.609 5.80723 10.4607 5.81367 10.2352 5.93613Z" fill="var(--ion-color-secondary)"/>
<path d="M0.502734 9.80332C0.354492 9.88066 0.20625 10.0289 0.128906 10.1836C0 10.435 0 10.5445 0 21.334C0 32.1299 0 32.233 0.128906 32.4844C0.277148 32.7744 0.644531 33 0.966797 33C1.28906 33 1.65645 32.7744 1.80469 32.4844C1.9207 32.2523 1.93359 32.1105 1.93359 30.6475V29.0684H16.5H31.0664V30.6475C31.0664 32.1105 31.0793 32.2523 31.1953 32.4844C31.3436 32.7744 31.7109 33 32.0332 33C32.3555 33 32.7229 32.7744 32.8711 32.4844C32.9936 32.2395 33 32.1105 33 28.6816V25.1367H23.693C17.6344 25.1367 14.2699 25.1109 14.0443 25.0723C13.1678 24.9047 12.3492 24.2859 11.9883 23.5125C11.7498 23.0033 11.666 22.5715 11.666 21.8432V21.2695H6.7998H1.93359V15.8555C1.93359 10.551 1.93359 10.4285 1.80469 10.1836C1.56621 9.71309 0.986133 9.54551 0.502734 9.80332Z" fill="var(--ion-color-secondary)"/>
<path d="M8.19237 13.6061C6.72929 13.8897 5.67225 15.3979 5.91718 16.861C6.12343 18.1243 7.07733 19.0782 8.34061 19.2844C10.2033 19.5938 11.9242 17.8729 11.6148 16.0102C11.3441 14.3667 9.8037 13.2903 8.19237 13.6061Z" fill="var(--ion-color-secondary)"/>
<path d="M15.9264 15.5396C14.8178 15.7588 13.8768 16.7127 13.6641 17.8471C13.6318 18.0404 13.5996 19.1426 13.5996 20.3156C13.5996 22.3137 13.6061 22.449 13.7285 22.6875C13.8123 22.8551 13.9477 22.9904 14.1152 23.0742C14.3666 23.2031 14.4762 23.2031 23.6865 23.2031H33V20.6959C33 19.265 32.9742 18.0469 32.9355 17.8471C32.7164 16.6869 31.7818 15.7523 30.6217 15.5332C30.1963 15.4559 16.3453 15.4559 15.9264 15.5396Z" fill="var(--ion-color-secondary)"/>
</svg>
