<svg width="489" height="432" viewBox="0 0 489 432" fill="none" xmlns="http://www.w3.org/2000/svg">
<path d="M293.5 200L248.738 338.104L180 256.5L149.036 243.396H29.014C90.5193 353.789 229.124 424.32 236.676 428.106L244.5 432L252.324 428.106C259.876 424.32 398.481 353.789 459.986 243.396H339.42L304 240L293.5 200ZM349.309 0.00131946C329.462 -0.0851807 309.829 4.08231 291.745 12.2206C273.66 20.3589 257.546 32.2772 244.5 47.1658C231.454 32.2772 215.34 20.3589 197.255 12.2206C179.171 4.08231 159.538 -0.0851807 139.691 0.00131946C102.656 0.0442638 67.15 14.7089 40.9622 40.7784C14.7744 66.8478 0.0431394 102.193 0 139.061C0.144652 162.83 4.5419 186.384 12.9857 208.618H130.4L175.823 140.792L237.5 196.5L292.313 97.6837L359.198 208.618H476.014C484.458 186.384 488.855 162.83 489 139.061C488.957 102.193 474.226 66.8478 448.038 40.7784C421.85 14.7089 386.344 0.0442638 349.309 0.00131946Z" fill="var(--ion-color-primary)"/>
<path d="M291.66 186.53L248.01 317.188L185.685 208.448L165.435 238.703H66.03C116.97 330.186 231.765 388.635 238.02 391.773L244.5 395L250.98 391.773C257.235 388.635 372.03 330.186 422.97 238.703H323.115L291.66 186.53ZM331.305 37.0011C314.868 36.9294 298.607 40.383 283.629 47.1272C268.651 53.8715 255.305 63.7483 244.5 76.0865C233.695 63.7483 220.349 53.8715 205.371 47.1272C190.393 40.383 174.132 36.9294 157.695 37.0011C127.022 37.0367 97.615 49.1893 75.9257 70.7932C54.2365 92.397 42.0357 121.688 42 152.24C42.1198 171.938 45.7617 191.457 52.755 209.882H150L187.62 153.675L240.99 246.771L284.1 117.951L339.495 209.882H436.245C443.238 191.457 446.88 171.938 447 152.24C446.964 121.688 434.764 92.397 413.074 70.7932C391.385 49.1893 361.978 37.0367 331.305 37.0011V37.0011Z" fill="var(--ion-color-primary)"/>
</svg>
