<svg width="512" height="411" viewBox="0 0 512 411" fill="none" xmlns="http://www.w3.org/2000/svg">
<path d="M120.006 0.931793C109.006 2.53177 98.9062 6.63177 66.3062 22.7318C31.5062 39.9318 25.0062 44.1318 16.0062 55.6318C10.4062 62.6318 4.10617 75.1318 1.80617 83.8318C0.106173 89.8318 0.00617284 99.4318 0.00617284 218.832C0.00617284 363.032 -0.493827 352.132 7.50617 368.332C17.3062 388.132 34.0062 401.832 56.1062 408.032L64.0062 410.332H177.006C300.906 410.332 294.606 410.632 308.206 404.232C325.906 395.832 338.506 375.332 338.506 354.832C338.506 343.332 333.706 330.332 325.706 320.232L321.806 315.232L325.106 311.332C333.106 301.832 338.506 287.432 338.506 275.332C338.506 263.232 333.106 248.832 325.106 239.332L321.806 235.432L325.706 230.432C333.806 220.132 338.506 207.432 338.506 195.332C338.506 188.632 336.306 178.332 334.006 173.832L332.406 170.832H382.006H431.506V146.532C431.506 125.532 431.706 121.832 433.306 118.832C438.606 108.132 454.406 108.132 459.706 118.832C461.306 121.832 461.506 125.432 461.506 146.232V170.032L466.306 169.332C482.406 166.932 497.806 155.232 505.606 139.432C519.606 110.832 507.006 77.4318 477.306 64.5318L470.006 61.3318L322.006 60.8318C176.306 60.3318 173.906 60.3318 170.606 58.3318C160.906 52.6318 160.006 39.9318 168.806 33.4318C171.406 31.5318 173.406 31.3318 195.306 30.8318L219.006 30.3318L195.506 18.6318C182.606 12.2318 169.206 6.03177 165.806 4.93179C152.206 0.331787 134.606 -1.16821 120.006 0.931793Z" fill="var(--ion-color-primary)"/>
<path d="M439.406 212.332C437.906 213.132 430.906 220.432 423.806 228.532C416.706 236.732 407.506 246.932 403.406 251.332C390.706 264.932 385.906 273.332 383.106 287.132C379.306 305.432 383.106 323.032 394.006 338.332C400.106 346.932 407.506 353.132 417.006 357.832C427.606 363.132 435.006 364.832 446.506 364.832C458.006 364.832 465.406 363.132 476.006 357.932C490.906 350.532 502.806 336.732 508.106 320.532C510.506 313.432 510.906 310.732 510.906 300.332C510.906 290.032 510.506 287.232 508.206 280.232C504.906 270.232 499.506 261.832 490.206 251.932C486.206 247.732 476.906 237.432 469.606 229.032C462.306 220.632 455.006 213.132 453.406 212.332C449.906 210.432 442.806 210.432 439.406 212.332Z" fill="var(--ion-color-primary)"/>
</svg>
