<?xml version="1.0" encoding="utf-8"?>
<!-- Generator: Adobe Illustrator 16.0.3, SVG Export Plug-In . SVG Version: 6.00 Build 0)  -->
<!DOCTYPE svg PUBLIC "-//W3C//DTD SVG 1.1//EN" "http://www.w3.org/Graphics/SVG/1.1/DTD/svg11.dtd">
<svg version="1.1" id="Capa_1" xmlns="http://www.w3.org/2000/svg" xmlns:xlink="http://www.w3.org/1999/xlink" x="0px" y="0px"
	 width="27px" height="27px" viewBox="0 0 27 27" enable-background="new 0 0 27 27" xml:space="preserve">
<path fill-opacity="0.8" d="M26.271,11.744c0,0,0-0.001-0.002-0.002L15.256,0.729C14.787,0.259,14.162,0,13.499,0
	c-0.664,0-1.288,0.259-1.758,0.728L0.733,11.736c-0.003,0.003-0.007,0.007-0.011,0.011c-0.964,0.969-0.962,2.542,0.005,3.51
	c0.442,0.441,1.025,0.697,1.649,0.725c0.025,0.002,0.051,0.004,0.077,0.004h0.439v8.105C2.892,25.695,4.196,27,5.801,27h4.309
	c0.437,0,0.791-0.354,0.791-0.791v-6.354c0-0.731,0.595-1.327,1.327-1.327h2.542c0.732,0,1.327,0.596,1.327,1.327v6.354
	c0,0.438,0.354,0.791,0.791,0.791h4.31c1.604,0,2.908-1.305,2.908-2.908v-8.105h0.408c0.663,0,1.287-0.259,1.758-0.729
	C27.238,14.289,27.239,12.713,26.271,11.744L26.271,11.744z"/>
</svg>
