<svg width="513" height="512" viewBox="0 0 513 512" fill="none" xmlns="http://www.w3.org/2000/svg">
<path d="M32.0025 1.33215C17.3025 5.43216 5.30248 17.5322 1.40248 32.3322C0.302479 36.5322 0.00247934 70.7321 0.00247934 234.432C0.00247934 450.132 -0.297521 437.532 5.70248 447.932C9.40248 454.132 16.8025 461.332 22.6025 464.232C25.3025 465.532 57.6025 476.732 94.5025 489.032L161.502 511.432H170.502C181.502 511.432 187.702 509.432 196.002 503.332C202.702 498.432 208.102 491.032 211.002 482.632C212.602 478.032 213.002 474.432 213.002 462.432V447.932H248.302C288.503 447.932 292.503 447.432 306.003 440.832C322.202 432.932 335.302 416.432 339.402 398.932C341.702 389.232 341.702 295.632 339.503 290.132C332.802 274.132 309.603 273.132 301.202 288.432C299.702 291.032 299.402 297.332 299.003 340.432L298.503 389.432L296.003 393.932C294.603 396.332 291.503 399.732 289.202 401.432L284.802 404.432L248.902 404.732L213.002 405.032L212.802 239.732L212.502 74.4322L209.302 67.7321C204.102 56.7321 197.102 50.2321 185.102 45.2321L179.502 42.9322L232.202 43.2321L284.802 43.4322L289.202 46.4322C291.503 48.1322 294.603 51.5322 296.003 53.9322L298.503 58.4322L299.003 96.9322C299.503 134.632 299.503 135.532 301.702 139.032C303.003 141.032 305.902 143.932 308.202 145.532C311.902 148.132 313.202 148.432 320.003 148.432C326.702 148.432 328.103 148.132 331.603 145.732C333.702 144.232 336.603 141.332 338.003 139.232L340.503 135.532L340.802 95.8322C341.103 51.0322 340.802 48.3322 334.202 34.9322C328.802 23.9322 317.402 12.6322 306.003 7.03217C290.802 -0.367828 298.002 -0.0678406 160.002 0.0321655C64.3025 0.132172 35.5025 0.432159 32.0025 1.33215Z" fill="var(--ion-color-secondary)"/>
<path d="M396.503 108.832C391.403 111.132 386.403 116.732 385.103 121.632C384.403 123.932 384.003 138.532 384.003 158.632V191.932H339.203H294.403L289.103 194.532C280.103 199.032 275.703 208.532 278.103 218.332C279.703 225.032 286.603 232.132 293.203 233.732C296.403 234.532 311.303 234.932 340.903 234.932H384.003V268.032C384.003 291.432 384.403 302.432 385.203 305.332C387.703 313.432 397.003 319.932 406.103 319.932C414.103 319.832 416.803 317.532 462.803 271.632C508.903 225.632 512.003 221.932 512.003 214.132C512.003 204.632 512.603 205.332 464.103 156.632C434.003 126.532 417.103 110.232 414.403 108.932C409.303 106.432 401.803 106.432 396.503 108.832Z" fill="var(--ion-color-secondary)"/>
</svg>
