<svg width="14" height="14" viewBox="0 0 14 14" fill="none" xmlns="http://www.w3.org/2000/svg">
<path d="M1.45832 5.83337C0.654499 5.83337 0 6.48787 0 7.2917V11.9584C0 12.7622 0.654499 13.4167 1.45832 13.4167H3.20832C3.53675 13.4167 3.83889 13.3059 4.08332 13.1215V5.83337H1.45832Z" fill="#F8F8F8"/>
<path d="M14 8.02081C14 7.67024 13.8612 7.34357 13.6203 7.10264C13.8927 6.80457 14.0315 6.40496 13.9936 5.98907C13.9253 5.24764 13.2574 4.66664 12.4723 4.66664H8.86901C9.04751 4.12472 9.33333 3.13132 9.33333 2.33332C9.33333 1.06807 8.25826 0 7.58333 0C6.97726 0 6.54441 0.34125 6.52576 0.35525C6.45693 0.410675 6.41668 0.494675 6.41668 0.583324V2.5614L4.73669 6.20082L4.66669 6.23639V12.4886C5.14151 12.7126 5.74233 12.8333 6.12501 12.8333H11.4794C12.1147 12.8333 12.6706 12.4051 12.8013 11.8142C12.8683 11.5103 12.8293 11.2041 12.6957 10.9381C13.1268 10.7211 13.4167 10.2771 13.4167 9.77081C13.4167 9.56431 13.3694 9.36656 13.2796 9.18749C13.7107 8.97049 14 8.52656 14 8.02081Z" fill="#F8F8F8"/>
</svg>
