<svg width="427" height="601" viewBox="0 0 427 601" fill="none" xmlns="http://www.w3.org/2000/svg">
    <path d="M275.389 191.425C275.389 195.316 275.846 198.825 276.76 201.953C277.75 205.081 279.12 207.789 280.872 210.078C282.699 212.29 284.907 214.007 287.496 215.228C290.085 216.448 293.055 217.059 296.406 217.059C299.68 217.059 302.611 216.448 305.2 215.228C307.865 214.007 310.074 212.29 311.825 210.078C313.653 207.789 315.023 205.081 315.937 201.953C316.927 198.825 317.422 195.316 317.422 191.425C317.422 187.534 316.927 184.025 315.937 180.897C315.023 177.693 313.653 174.985 311.825 172.772C310.074 170.484 307.865 168.729 305.2 167.508C302.611 166.288 299.68 165.678 296.406 165.678C293.055 165.678 290.085 166.326 287.496 167.623C284.907 168.844 282.699 170.598 280.872 172.887C279.12 175.099 277.75 177.808 276.76 181.012C275.846 184.14 275.389 187.611 275.389 191.425ZM335.811 191.425C335.811 198.215 334.783 204.204 332.727 209.391C330.747 214.503 328.006 218.813 324.503 222.322C321.001 225.756 316.813 228.349 311.939 230.104C307.142 231.859 301.964 232.736 296.406 232.736C290.999 232.736 285.897 231.859 281.1 230.104C276.303 228.349 272.115 225.756 268.536 222.322C264.957 218.813 262.14 214.503 260.084 209.391C258.028 204.204 257 198.215 257 191.425C257 184.635 258.066 178.685 260.198 173.573C262.33 168.386 265.186 164.037 268.765 160.528C272.42 157.019 276.608 154.387 281.329 152.632C286.126 150.877 291.151 150 296.406 150C301.812 150 306.914 150.877 311.711 152.632C316.508 154.387 320.696 157.019 324.275 160.528C327.854 164.037 330.671 168.386 332.727 173.573C334.783 178.685 335.811 184.635 335.811 191.425Z" fill="var(--ion-color-secondary)"/>
    <path d="M382.321 197.067C382.321 199.096 381.921 201.045 381.122 202.914C380.322 204.784 379.283 206.599 378.004 208.362C376.724 210.07 375.285 211.726 373.686 213.328C372.087 214.93 370.515 216.452 368.969 217.894C368.169 218.642 367.29 219.496 366.33 220.457C365.424 221.365 364.545 222.3 363.692 223.261C362.839 224.222 362.066 225.13 361.373 225.984C360.734 226.785 360.334 227.453 360.174 227.987H384V238H347.062C346.955 237.413 346.902 236.665 346.902 235.757C346.902 234.849 346.902 234.208 346.902 233.835C346.902 231.271 347.301 228.922 348.101 226.785C348.954 224.649 350.047 222.673 351.379 220.858C352.712 218.989 354.204 217.253 355.856 215.651C357.562 214.049 359.241 212.447 360.894 210.845C362.173 209.616 363.372 208.468 364.491 207.4C365.611 206.279 366.597 205.211 367.45 204.196C368.303 203.128 368.969 202.087 369.449 201.072C369.928 200.004 370.168 198.936 370.168 197.868C370.168 195.518 369.502 193.863 368.169 192.901C366.837 191.94 365.184 191.46 363.212 191.46C361.773 191.46 360.414 191.7 359.135 192.18C357.909 192.608 356.763 193.142 355.697 193.783C354.684 194.37 353.804 194.984 353.058 195.625C352.312 196.212 351.752 196.693 351.379 197.067L345.463 188.736C347.808 186.547 350.526 184.758 353.618 183.369C356.763 181.927 360.121 181.206 363.692 181.206C366.943 181.206 369.742 181.58 372.087 182.328C374.432 183.075 376.351 184.143 377.844 185.532C379.389 186.867 380.509 188.522 381.202 190.498C381.948 192.421 382.321 194.61 382.321 197.067Z" fill="var(--ion-color-secondary)"/>
    <path d="M320.856 299.426C262.74 299.426 215.459 252.145 215.459 194.029C215.459 135.913 262.74 88.6323 320.856 88.6323C378.972 88.6323 426.252 135.914 426.252 194.029C426.253 252.145 378.972 299.426 320.856 299.426ZM320.856 108.298C273.584 108.298 235.126 146.757 235.126 194.029C235.126 241.3 273.584 279.758 320.856 279.758C368.127 279.758 406.586 241.3 406.586 194.029C406.586 146.757 368.128 108.298 320.856 108.298Z" fill="var(--ion-color-secondary)"/>
    <path d="M345.92 317.807L345.69 317.353C337.66 318.968 329.356 319.82 320.856 319.82C251.495 319.82 195.065 263.39 195.065 194.029C195.065 157.135 211.033 123.899 236.419 100.869L185.504 0L25.0881 317.807C4.91277 355.552 -2.41241 394.549 0.681157 431.068H86.3642L106.667 380.31C108.724 375.169 113.796 371.874 119.323 372.077C124.856 372.281 129.666 375.939 131.339 381.218L155.811 458.432L195.512 310.329C197.071 304.513 202.385 300.495 208.412 300.615C214.433 300.724 219.606 304.919 220.954 310.788L248.592 431.069H303.707C310.948 431.069 316.818 436.939 316.818 444.18C316.818 451.421 310.948 457.291 303.707 457.291H238.152C232.042 457.291 226.742 453.071 225.373 447.116L207.198 368.012L169.527 508.541C168.019 514.167 162.98 518.124 157.158 518.255C157.059 518.257 156.958 518.258 156.86 518.258C151.158 518.258 146.094 514.566 144.364 509.108L117.409 424.06L107.413 449.05C105.422 454.027 100.601 457.291 95.2398 457.291H4.76593C23.1608 537.637 93.1047 600.215 185.505 600.215C328.096 600.214 417.216 451.187 345.92 317.807Z" fill="var(--ion-color-secondary)"/>
</svg>
