<svg width="28" height="59" viewBox="0 0 28 59" fill="none" xmlns="http://www.w3.org/2000/svg">
<path d="M1.03334 50.7298C0.155704 52.2565 0.203505 54.1399 1.70735 55.2728C2.99417 56.2398 5.28483 56.1141 6.16438 54.5864C7.98276 51.4239 11.2801 49.0423 11.2801 49.0423C11.2801 49.0423 10.066 46.3146 9.49138 41.2034C9.49042 41.2043 3.1022 47.1296 1.03334 50.7298Z" fill="url(#paint0_linear)"/>
<path d="M26.9715 23.2209C23.2401 19.8341 19.2372 16.7955 14.8566 14.3515C14.3853 13.9878 13.8461 13.7032 13.2773 13.5131C12.8968 13.3561 12.523 13.2801 12.1635 13.2694C11.5621 13.1992 10.9598 13.2304 10.4082 13.3815C8.95216 13.7792 7.96936 14.6878 7.41008 15.844C4.71119 19.0582 2.45686 22.5511 0.433888 26.242C-1.57474 29.9036 3.93011 33.1802 5.93683 29.5215C6.56399 28.376 7.21026 27.2471 7.88523 26.1396C8.46745 30.1405 9.04872 34.1414 9.62903 38.1413C9.74663 38.9524 10.1252 39.6504 10.6539 40.2178C11.499 45.913 13.0507 51.5312 15.4972 56.7C17.2821 60.4727 22.7764 57.1747 21.0001 53.4195C19.1722 49.558 17.9504 45.2832 17.198 40.9713C18.8519 39.7966 19.4513 37.6812 19.1416 35.5423C18.566 31.5921 17.9934 27.64 17.4179 23.6888C19.1597 24.9708 20.8405 26.3453 22.4609 27.8164C25.5269 30.5899 30.0499 26.0109 26.9715 23.2209Z" fill="url(#paint1_linear)"/>
<path d="M11.685 11.8315C14.7516 11.8315 17.2376 9.29647 17.2376 6.1694C17.2376 3.04232 14.7516 0.507324 11.685 0.507324C8.61833 0.507324 6.13232 3.04232 6.13232 6.1694C6.13232 9.29647 8.61833 11.8315 11.685 11.8315Z" fill="url(#paint2_linear)"/>
<defs>
<linearGradient id="paint0_linear" x1="5.86833" y1="41.2034" x2="5.86833" y2="55.8901" gradientUnits="userSpaceOnUse">
<stop stop-color="#29C1E1"/>
<stop offset="1" stop-color="#8C30F5"/>
</linearGradient>
<linearGradient id="paint1_linear" x1="14" y1="13.2336" x2="14" y2="58.3672" gradientUnits="userSpaceOnUse">
<stop stop-color="#29C1E1"/>
<stop offset="1" stop-color="#8C30F5"/>
</linearGradient>
<linearGradient id="paint2_linear" x1="11.685" y1="0.507324" x2="11.685" y2="11.8315" gradientUnits="userSpaceOnUse">
<stop stop-color="#29C1E1"/>
<stop offset="1" stop-color="#8C30F5"/>
</linearGradient>
</defs>
</svg>
