<svg width="543" height="724" viewBox="0 0 543 724" fill="none" xmlns="http://www.w3.org/2000/svg">
<path d="M331.417 543.164C371.987 556.539 407.81 565.058 459.281 580.283C439.508 820.797 203.247 725.282 331.417 543.164ZM542.36 322.222C539.696 250.006 526.482 155.274 421.231 170.118C371.892 182.513 335.437 234.675 318.291 324.67C308.874 374.152 314.35 443.607 325.458 485.241C335.6 514.581 332.151 512.778 343.052 518.35C385.243 527.499 427.01 537.628 469.544 547.956C512.754 518.582 548.242 362.636 542.36 322.222ZM217.547 316.68C228.646 275.04 234.122 205.585 224.709 156.109C207.577 66.109 171.117 13.9388 121.769 1.55189C16.5175 -13.2917 3.30402 81.4385 0.639722 153.659C-5.24187 194.066 30.2505 350.021 73.4643 379.39C115.995 369.062 157.757 358.942 199.962 349.784C210.849 344.218 207.4 346.02 217.547 316.68ZM83.7145 411.726C103.481 652.237 339.741 556.721 211.574 374.607C171.004 387.983 135.184 396.5 83.7145 411.726Z" fill="var(--ion-color-menu-purple-primary)"/>
</svg>
