<svg width="513" height="436" viewBox="0 0 513 436" fill="none" xmlns="http://www.w3.org/2000/svg">
<path d="M389.047 435.53C355.975 435.53 324.883 422.651 301.497 399.265C278.111 375.88 265.232 344.788 265.232 311.716C265.232 278.643 278.111 247.551 301.497 224.165C324.882 200.78 355.975 187.9 389.047 187.9C422.119 187.9 453.212 200.779 476.597 224.165C499.982 247.551 512.861 278.643 512.861 311.716C512.861 344.788 499.982 375.88 476.597 399.265C453.212 422.651 422.119 435.53 389.047 435.53ZM389.047 209.493C332.681 209.493 286.825 255.35 286.825 311.715C286.825 368.08 332.682 413.937 389.047 413.937C445.412 413.937 491.269 368.08 491.269 311.715C491.269 255.35 445.412 209.493 389.047 209.493Z" fill="var(--ion-color-primary)"/>
<path d="M397.144 227.104H380.949V258.297H397.144V227.104Z" fill="var(--ion-color-primary)"/>
<path d="M397.144 365.134H380.949V396.327H397.144V365.134Z" fill="var(--ion-color-primary)"/>
<path d="M473.658 303.618H442.465V319.813H473.658V303.618Z" fill="var(--ion-color-primary)"/>
<path d="M335.628 303.618H304.435V319.813H335.628V303.618Z" fill="var(--ion-color-primary)"/>
<path d="M287.184 209.852C292.335 204.701 297.81 199.989 303.559 195.733L254.303 110.243L207.896 250.392C206.503 254.597 202.684 257.525 198.261 257.777C193.845 258.026 189.711 255.554 187.85 251.535L142.921 154.507L99.7048 189.394C97.7841 190.944 95.3911 191.79 92.9231 191.79H24.5312C77.7565 283.841 199.094 353.323 199.094 353.323C199.094 353.323 218.609 342.145 245.414 322.826C245.135 319.148 244.991 315.442 244.991 311.715C244.991 273.237 259.975 237.061 287.184 209.852Z" fill="var(--ion-color-primary)"/>
<path d="M398.194 109.903C398.194 49.2095 348.985 0 288.285 0C251.569 0 219.052 18.0061 199.094 45.6694C179.135 18.0061 146.625 0 109.903 0C49.2025 0 0 49.2101 0 109.903C0 130.526 5.06184 150.756 13.5623 170.198H89.1094L140.123 129.016C142.71 126.927 146.116 126.148 149.355 126.902C152.594 127.656 155.304 129.862 156.702 132.88L195.977 217.698L241.38 80.5809C242.717 76.542 246.302 73.6647 250.535 73.234C254.767 72.8021 258.859 74.8982 260.983 78.5852L321.847 184.222C341.354 173.909 363.093 168.211 385.704 167.699C393.557 149.026 398.193 129.644 398.194 109.903Z" fill="var(--ion-color-primary)"/>
<path d="M411.096 296.124C407.836 291.803 403.536 288.163 398.303 286.558C396.673 286.057 394.996 285.732 393.311 285.484C392.084 285.305 390.883 285.105 389.702 284.877C385.811 284.127 382.126 283.078 378.368 281.469C372.692 279.038 367.265 275.459 362.448 271.624C359.372 269.174 356.51 266.474 353.771 263.657C351.314 261.13 349.129 258.031 346.209 256.011C344.658 254.938 342.937 254.277 341.028 254.277C336.156 254.277 332.206 258.226 332.206 263.099C332.206 267.32 335.499 270.002 338.257 272.714C338.928 273.374 339.593 274.039 340.261 274.702C345.837 280.024 350.865 285.956 354.889 292.54C358.529 298.496 361.502 304.973 362.832 311.858C363.207 313.798 363.407 315.766 363.857 317.692C363.857 317.712 363.858 317.725 363.863 317.719C366.611 329.428 377.115 338.151 389.662 338.151C404.302 338.151 416.17 326.283 416.17 311.644C416.169 306.066 414.452 300.57 411.096 296.124Z" fill="var(--ion-color-primary)"/>
</svg>
