<svg width="18" height="18" viewBox="0 0 18 18" fill="none" xmlns="http://www.w3.org/2000/svg">
<path d="M9.00009 4.4917C6.51412 4.4917 4.4917 6.51451 4.4917 9.00048C4.4917 11.4865 6.51412 13.5093 9.00009 13.5093C11.4857 13.5093 13.5085 11.4869 13.5085 9.00048C13.5085 6.51412 11.4857 4.4917 9.00009 4.4917Z" fill="url(#paint0_linear)"/>
<path d="M9.00028 3.16635C8.51441 3.16635 8.12061 2.77255 8.12061 2.28708V0.879675C8.12061 0.393801 8.51441 0 9.00028 0C9.48616 0 9.87996 0.393801 9.87996 0.879675V2.28708C9.87996 2.77255 9.48576 3.16635 9.00028 3.16635Z" fill="url(#paint1_linear)"/>
<path d="M9.00028 14.8333C8.51441 14.8333 8.12061 15.2271 8.12061 15.7129V17.1199C8.12061 17.6062 8.51441 18 9.00028 18C9.48616 18 9.87996 17.6062 9.87996 17.1199V15.7129C9.87996 15.2271 9.48576 14.8333 9.00028 14.8333Z" fill="url(#paint2_linear)"/>
<path d="M13.1246 4.87505C12.7814 4.53147 12.7814 3.97465 13.1246 3.63107L14.1198 2.6358C14.463 2.29262 15.0202 2.29262 15.3638 2.6358C15.7074 2.97938 15.7074 3.5366 15.3638 3.87979L14.3686 4.87505C14.0254 5.21863 13.4686 5.21863 13.1246 4.87505Z" fill="url(#paint3_linear)"/>
<path d="M4.8752 13.1254C4.53162 12.7814 3.9748 12.7814 3.63122 13.1254L2.63595 14.1203C2.29277 14.4635 2.29237 15.0211 2.63595 15.3643C2.97953 15.7074 3.53675 15.7074 3.87993 15.3643L4.8752 14.3686C5.21878 14.0254 5.21878 13.4682 4.8752 13.1254Z" fill="url(#paint4_linear)"/>
<path d="M14.833 9.00004C14.833 8.51416 15.2268 8.12036 15.7127 8.12036H17.1201C17.606 8.12036 17.9998 8.51416 17.9998 9.00004C17.9998 9.48591 17.606 9.87931 17.1201 9.87931H15.7127C15.2268 9.87931 14.833 9.48591 14.833 9.00004Z" fill="url(#paint5_linear)"/>
<path d="M3.16635 9.00004C3.16635 8.51416 2.77255 8.12036 2.28668 8.12036H0.879675C0.393801 8.12036 0 8.51416 0 9.00004C0 9.48591 0.393801 9.87931 0.879675 9.87931H2.28708C2.77255 9.87931 3.16635 9.48591 3.16635 9.00004Z" fill="url(#paint6_linear)"/>
<path d="M13.1249 13.1254C13.4685 12.7822 14.0257 12.7822 14.3689 13.1254L15.3641 14.1207C15.7077 14.4635 15.7077 15.0211 15.3641 15.3643C15.0205 15.7075 14.4637 15.7075 14.1201 15.3643L13.1249 14.369C12.7813 14.0254 12.7813 13.4686 13.1249 13.1254Z" fill="url(#paint7_linear)"/>
<path d="M4.87486 4.87507C5.21844 4.53149 5.21844 3.97467 4.87486 3.63109L3.8796 2.63622C3.53602 2.29265 2.97919 2.29265 2.63561 2.63622C2.29203 2.97941 2.29203 3.53663 2.63561 3.87981L3.63088 4.87507C3.97446 5.21905 4.53128 5.21905 4.87486 4.87507Z" fill="url(#paint8_linear)"/>
<defs>
<linearGradient id="paint0_linear" x1="9.00008" y1="4.4917" x2="9.00008" y2="13.5093" gradientUnits="userSpaceOnUse">
<stop stop-color="#29C1E1"/>
<stop offset="1" stop-color="#8C30F5"/>
</linearGradient>
<linearGradient id="paint1_linear" x1="9.00028" y1="0" x2="9.00028" y2="3.16635" gradientUnits="userSpaceOnUse">
<stop stop-color="#29C1E1"/>
<stop offset="1" stop-color="#8C30F5"/>
</linearGradient>
<linearGradient id="paint2_linear" x1="9.00028" y1="14.8333" x2="9.00028" y2="18" gradientUnits="userSpaceOnUse">
<stop stop-color="#29C1E1"/>
<stop offset="1" stop-color="#8C30F5"/>
</linearGradient>
<linearGradient id="paint3_linear" x1="14.2443" y1="2.37842" x2="14.2443" y2="5.13273" gradientUnits="userSpaceOnUse">
<stop stop-color="#29C1E1"/>
<stop offset="1" stop-color="#8C30F5"/>
</linearGradient>
<linearGradient id="paint4_linear" x1="3.75565" y1="12.8674" x2="3.75565" y2="15.6216" gradientUnits="userSpaceOnUse">
<stop stop-color="#29C1E1"/>
<stop offset="1" stop-color="#8C30F5"/>
</linearGradient>
<linearGradient id="paint5_linear" x1="16.4164" y1="8.12036" x2="16.4164" y2="9.87931" gradientUnits="userSpaceOnUse">
<stop stop-color="#29C1E1"/>
<stop offset="1" stop-color="#8C30F5"/>
</linearGradient>
<linearGradient id="paint6_linear" x1="1.58318" y1="8.12036" x2="1.58318" y2="9.87931" gradientUnits="userSpaceOnUse">
<stop stop-color="#29C1E1"/>
<stop offset="1" stop-color="#8C30F5"/>
</linearGradient>
<linearGradient id="paint7_linear" x1="14.2445" y1="12.868" x2="14.2445" y2="15.6217" gradientUnits="userSpaceOnUse">
<stop stop-color="#29C1E1"/>
<stop offset="1" stop-color="#8C30F5"/>
</linearGradient>
<linearGradient id="paint8_linear" x1="3.75524" y1="2.37854" x2="3.75524" y2="5.13306" gradientUnits="userSpaceOnUse">
<stop stop-color="#29C1E1"/>
<stop offset="1" stop-color="#8C30F5"/>
</linearGradient>
</defs>
</svg>
