<svg width="282" height="512" viewBox="0 0 282 512" fill="none" xmlns="http://www.w3.org/2000/svg">
<path d="M213.333 288.593V85.333C213.333 38.205 175.128 0 128 0C80.872 0 42.667 38.205 42.667 85.333V288.592C16.48 312.03 0 346.091 0 384C0 454.693 57.308 512 128 512C198.692 512 256 454.693 256 384C256 346.091 239.52 312.03 213.333 288.593ZM128 469.333C80.872 469.333 42.667 431.128 42.667 384C42.667 359.363 53.108 336.508 71.122 320.385L85.334 307.665V85.333C85.334 61.769 104.437 42.666 128.001 42.666C151.565 42.666 170.668 61.768 170.668 85.333V307.665L184.88 320.385C202.894 336.508 213.335 359.362 213.335 384C213.333 431.128 175.128 469.333 128 469.333Z" fill="var(--ion-color-primary)"/>
<path d="M149.334 170.667H106.667V426.667H149.334V170.667Z" fill="var(--ion-color-primary)"/>
<path d="M128 448C163.346 448 192 419.346 192 384C192 348.654 163.346 320 128 320C92.6538 320 64 348.654 64 384C64 419.346 92.6538 448 128 448Z" fill="var(--ion-color-primary)"/>
<rect x="189" y="57" width="93" height="30" rx="15" fill="var(--ion-color-primary)"/>
<rect x="189" y="99" width="64" height="30" rx="15" fill="var(--ion-color-primary)"/>
<rect x="193" y="141" width="43" height="30" rx="15" fill="var(--ion-color-primary)"/>
</svg>
